<svg width="400" height="144" viewBox="0 0 400 144" xmlns="http://www.w3.org/2000/svg" xmlns:xlink="http://www.w3.org/1999/xlink"><title>ic-postman</title><defs><path id="a" d="M0 .269h400V144H0"/><path id="c" d="M0 .269h400V144H0"/></defs><g fill="none" fill-rule="evenodd"><path d="M166.736 70.56h6.466c2.012 0 3.57-.567 4.67-1.701 1.102-1.134 1.653-2.834 1.653-5.101v-.575c0-2.267-.55-3.968-1.653-5.102-1.1-1.132-2.658-1.7-4.67-1.7h-6.466V70.56zm-4.023 15.758V54.13c0-.382.151-.711.455-.982.302-.272.694-.407 1.173-.407h9.053c3.066 0 5.524.83 7.376 2.49 1.852 1.66 2.778 4.28 2.778 7.855v.432c0 3.577-.942 6.203-2.826 7.88-1.884 1.677-4.39 2.515-7.52 2.515h-6.466v12.405c0 .448-.2.799-.599 1.054-.4.255-.87.383-1.413.383s-1.014-.128-1.413-.383c-.4-.255-.598-.606-.598-1.054zM201.606 77.6c0 4.535 2.09 6.802 6.275 6.802 2.012 0 3.567-.567 4.67-1.7 1.102-1.133 1.653-2.834 1.653-5.102V63.183c0-2.267-.552-3.968-1.653-5.102-1.102-1.132-2.658-1.7-4.67-1.7-4.185 0-6.275 2.268-6.275 6.802V77.6zm-4.023 0V63.183c0-3.608.934-6.251 2.802-7.928 1.868-1.676 4.367-2.514 7.496-2.514 3.129 0 5.636.838 7.52 2.514 1.883 1.677 2.825 4.32 2.825 7.928V77.6c0 3.609-.941 6.25-2.826 7.928-1.883 1.676-4.39 2.514-7.52 2.514-3.129 0-5.627-.838-7.495-2.514-1.868-1.677-2.802-4.32-2.802-7.928zM232.452 82.821c0-.51.183-1.007.551-1.485.366-.479.773-.719 1.221-.719.288 0 .654.2 1.102.6.447.4.91.845 1.39 1.34.478.495 1.228.943 2.25 1.341 1.022.401 2.171.6 3.45.6 2.074 0 3.703-.504 4.885-1.51 1.18-1.006 1.772-2.482 1.772-4.43 0-1.757-.544-3.185-1.629-4.288-1.086-1.1-2.395-1.939-3.928-2.514a120.729 120.729 0 0 1-4.622-1.844c-1.549-.654-2.866-1.66-3.95-3.018-1.087-1.357-1.63-3.105-1.63-5.245 0-1.678.32-3.139.958-4.38.638-1.243 1.493-2.179 2.563-2.809a12.674 12.674 0 0 1 3.33-1.38 15.025 15.025 0 0 1 3.686-.436c1.98 0 3.872.288 5.677.861 1.803.574 2.706 1.37 2.706 2.386 0 .45-.16.93-.479 1.444-.319.513-.735.77-1.245.77-.128 0-.863-.304-2.204-.91-1.34-.606-2.826-.91-4.455-.91-1.947 0-3.52.4-4.717 1.197-1.198.8-1.797 2.06-1.797 3.784 0 1.47.543 2.66 1.63 3.57 1.084.91 2.402 1.635 3.951 2.178a54.158 54.158 0 0 1 4.622 1.868c1.533.703 2.842 1.83 3.928 3.377 1.085 1.55 1.63 3.521 1.63 5.916 0 3.29-.96 5.772-2.876 7.448-1.916 1.677-4.455 2.514-7.615 2.514-2.843 0-5.245-.595-7.21-1.788-1.964-1.19-2.945-2.368-2.945-3.528M265.119 54.515c0-.468.127-.88.384-1.237a1.22 1.22 0 0 1 1.053-.537h19.495c.447 0 .798.178 1.054.537.255.357.383.769.383 1.237 0 .497-.128.933-.383 1.307a1.21 1.21 0 0 1-1.054.559h-7.712v29.933c0 .448-.2.8-.598 1.056-.4.256-.871.385-1.414.385-.543 0-1.014-.13-1.413-.385-.4-.255-.598-.608-.598-1.056V56.38h-7.76c-.447 0-.798-.18-1.053-.536-.257-.358-.384-.802-.384-1.33M301.138 86.317V54.704c0-1.309.671-1.964 2.012-1.964 1.277 0 2.347.847 3.21 2.54l7.52 14.416 7.567-14.417c.926-1.692 1.995-2.539 3.21-2.539 1.341 0 2.011.655 2.011 1.964v31.613c0 .448-.2.8-.599 1.054-.4.256-.87.383-1.412.383-.544 0-1.015-.127-1.414-.383-.399-.255-.599-.606-.599-1.054V61.17l-7.232 13.604c-.383.734-.91 1.102-1.58 1.102-.608 0-1.103-.368-1.486-1.102l-7.185-13.795v25.338c0 .448-.199.8-.598 1.054-.4.256-.87.383-1.413.383s-1.014-.127-1.413-.383c-.4-.255-.599-.606-.599-1.054M347.418 76.402h10.686l-5.327-18.044-5.36 18.044zm-6.956 9.676c0-.064.031-.192.096-.383l9.803-31.844c.281-.932 1.096-1.398 2.442-1.398s2.16.47 2.442 1.408l9.837 31.96c0 .06.007.12.024.18.016.06.024.104.024.134 0 .42-.262.795-.79 1.124a3.134 3.134 0 0 1-1.7.496c-.767 0-1.245-.302-1.438-.906l-2.106-7.093H346.42l-2.1 7.068c-.19.62-.675.931-1.46.931a3.052 3.052 0 0 1-1.623-.48c-.517-.319-.776-.718-.776-1.197z" fill="#EDEDED"/><g><mask id="b" fill="#fff"><use xlink:href="#a"/></mask><path d="M378.972 86.317V54.13c0-.925.671-1.389 2.012-1.389.671 0 1.237.2 1.7.598.463.401.918 1.047 1.366 1.941l11.926 23.326V54.13c0-.447.2-.79.6-1.03.398-.239.87-.359 1.412-.359.543 0 1.014.12 1.413.36.4.238.6.582.6 1.03v32.187c0 .448-.2.8-.6 1.054-.399.256-.87.383-1.413.383-1.022 0-1.868-.606-2.538-1.82L382.996 61.84v24.476c0 .448-.2.8-.599 1.054-.4.256-.87.383-1.413.383s-1.014-.127-1.413-.383c-.399-.255-.599-.606-.599-1.054" fill="#EDEDED" mask="url(#b)"/></g><path d="M25.05 139.701L0 140.57l12.841-13.056 12.21 12.188z" fill="#F15A24"/><g><mask id="d" fill="#fff"><use xlink:href="#c"/></mask><path d="M138.68 74.945c-4.654 36.287-37.846 61.924-74.127 57.265-36.287-4.655-61.924-37.846-57.27-74.13C11.94 21.794 45.125-3.846 81.415.814c36.285 4.653 61.928 37.847 57.265 74.13" fill="#F15A24" mask="url(#d)"/></g><path d="M89.872 47.682c4.353 4.627.057 15.567.057 15.567s-4.246 15.467-28.556 35.524l-4.538-4.454 30.86-31.54.596-.805c.821-1.338 1.501-14.382 1.581-14.292" fill="#999"/><path d="M89.872 47.682c4.353 4.627.057 15.567.057 15.567s-4.246 15.467-28.556 35.524l-4.538-4.454 30.86-31.54.596-.805c.821-1.338 1.501-14.382 1.581-14.292z" stroke="#FFF" stroke-width="1.918" stroke-linecap="round" stroke-linejoin="round"/><path d="M50.17 87.762l39.637-40.194c2.012 2.389 2.44 4.963 1.856 8.63-.393 2.54-4.78 7.616-4.78 7.616L56.835 94.319" fill="#666"/><path d="M50.17 87.762l39.637-40.194c2.012 2.389 2.44 4.963 1.856 8.63-.393 2.54-4.78 7.616-4.78 7.616L56.835 94.319" stroke="#FFF" stroke-width="1.201" stroke-linecap="round" stroke-linejoin="round"/><path d="M89.872 47.71L50.17 87.763l.08-.078-.015.006-9.85-9.706C60.926 52.434 74.207 47.67 74.207 47.67s8.646-3.375 14.814-.756c.474.254.68.4.85.797" fill="#FF931E"/><path d="M89.872 47.71L50.17 87.763l.08-.078-.015.006-9.85-9.706C60.926 52.434 74.207 47.67 74.207 47.67s8.646-3.375 14.814-.756c.474.254.68.4.85.797z" stroke="#FFF" stroke-width="1.918" stroke-linecap="round" stroke-linejoin="round"/><path d="M61.373 98.772c-9.472 7.801-21.594 20.055-38.071 28.602l3.665 15.668-15.534-15.3 38.736-39.98" fill="#999"/><path d="M61.373 98.772c-9.472 7.801-21.594 20.055-38.071 28.602l3.665 15.668-15.534-15.3 38.736-39.98" stroke="#FFF" stroke-width="1.918" stroke-linecap="round" stroke-linejoin="round"/><path d="M40.65 78.116l9.623 9.585-22.231 4.815 12.395-14.573.214.173z" fill="#F15A24"/><path d="M40.65 78.116l9.623 9.585-22.231 4.815 12.395-14.573.214.173z" stroke="#FFF" stroke-width="1.918" stroke-linecap="round" stroke-linejoin="round"/><path d="M86.082 36.087c-.944 8.52 5.19 16.19 13.71 17.14 8.513.946 16.19-5.193 17.14-13.71.947-8.517-5.197-16.195-13.713-17.142-8.521-.941-16.192 5.19-17.137 13.712" fill="#999"/><path d="M86.082 36.087c-.944 8.52 5.19 16.19 13.71 17.14 8.513.946 16.19-5.193 17.14-13.71.947-8.517-5.197-16.195-13.713-17.142-8.521-.941-16.192 5.19-17.137 13.712z" stroke="#FFF" stroke-width="1.918" stroke-linecap="round" stroke-linejoin="round"/><path d="M114.703 46.378c2.863-4.183 2.715-10.441 2.14-12.295-.705-2.27-2.283-5.962-5.035-7.881L97.256 39.606s11.184 12.016 11.475 12.056c.121.014 3.361-1.47 5.972-5.284" fill="#666"/><path d="M114.703 46.378c2.863-4.183 2.715-10.441 2.14-12.295-.705-2.27-2.283-5.962-5.035-7.881L97.256 39.606s11.184 12.016 11.475 12.056c.121.014 3.361-1.47 5.972-5.284zM111.767 35.878s1.399 3.436-.376 6.109" stroke="#FFF" stroke-width="1.918" stroke-linecap="round" stroke-linejoin="round"/><g><path d="M57.178 94.325l-16.06 2.858 9.694-10.072" fill="#666"/><path d="M57.178 94.325l-16.06 2.858 9.694-10.072" stroke="#FFF" stroke-width="1.918" stroke-linecap="round" stroke-linejoin="round"/></g><path d="M41.023 78.186L61.44 97.401" stroke="#FFF" stroke-width="1.918" stroke-linecap="round" stroke-linejoin="round"/></g></svg>